<svg xmlns="http://www.w3.org/2000/svg" width="24" height="24" viewBox="0 0 24 24" fill="none" stroke="url(#grad1)" stroke-width="2" stroke-linecap="round" stroke-linejoin="round" class="lucide lucide-book-open-icon lucide-book-open">
  <defs>
    <linearGradient id="grad1" x1="0%" y1="0%" x2="100%" y2="0%">
      <stop offset="0%" stop-color="#7e22ce"></stop>
      <stop offset="100%" stop-color="#ec4899"></stop>
    </linearGradient>
  </defs>
  <path d="M12 7v14"></path>
  <path d="M3 18a1 1 0 0 1-1-1V4a1 1 0 0 1 1-1h5a4 4 0 0 1 4 4 4 4 0 0 1 4-4h5a1 1 0 0 1 1 1v13a1 1 0 0 1-1 1h-6a3 3 0 0 0-3 3 3 3 0 0 0-3-3z"></path>
</svg>
